<svg width="24" height="24" viewBox="0 0 24 24" fill="none" xmlns="http://www.w3.org/2000/svg">
<circle cx="12" cy="12" r="11.5" stroke="#95B2D8"/>
<path d="M8.42716 14.522C9.67782 13.5887 10.6672 12.744 11.3952 11.988C12.1232 11.2227 12.4872 10.5087 12.4872 9.846C12.4872 9.622 12.4358 9.44933 12.3332 9.328C12.2398 9.20667 12.1138 9.146 11.9552 9.146C11.7685 9.146 11.6192 9.244 11.5072 9.44C11.4045 9.62667 11.3672 9.916 11.3952 10.308H8.38516C8.41316 9.44 8.59982 8.726 8.94516 8.166C9.29982 7.606 9.75716 7.19533 10.3172 6.934C10.8772 6.67267 11.4932 6.542 12.1652 6.542C13.3598 6.542 14.2325 6.83133 14.7832 7.41C15.3432 7.97933 15.6232 8.712 15.6232 9.608C15.6232 10.5507 15.3198 11.4373 14.7132 12.268C14.1158 13.0893 13.3645 13.7847 12.4592 14.354H15.6652V16.86H8.42716V14.522Z" fill="#95B2D8"/>
</svg>
