<svg width="24" height="24" viewBox="0 0 24 24" fill="none" xmlns="http://www.w3.org/2000/svg">
<circle cx="12" cy="12" r="11.5" stroke="#95B2D8"/>
<path d="M8.32336 9.972C8.35136 8.86133 8.67336 8.012 9.28936 7.424C9.91469 6.836 10.7967 6.542 11.9354 6.542C12.6727 6.542 13.3027 6.668 13.8254 6.92C14.348 7.172 14.74 7.51267 15.0014 7.942C15.272 8.37133 15.4074 8.85667 15.4074 9.398C15.4074 10.0513 15.2534 10.5647 14.9454 10.938C14.6374 11.302 14.292 11.5493 13.9094 11.68V11.736C15.0294 12.156 15.5894 12.9353 15.5894 14.074C15.5894 14.6713 15.4494 15.1987 15.1694 15.656C14.8894 16.1133 14.488 16.468 13.9654 16.72C13.452 16.972 12.8407 17.098 12.1314 17.098C10.918 17.098 9.96603 16.8087 9.27536 16.23C8.58469 15.6513 8.23003 14.746 8.21136 13.514H11.2354C11.2167 13.85 11.2634 14.1067 11.3754 14.284C11.4967 14.452 11.702 14.536 11.9914 14.536C12.1594 14.536 12.2994 14.4753 12.4114 14.354C12.5234 14.2233 12.5794 14.0553 12.5794 13.85C12.5794 13.5887 12.4907 13.3927 12.3134 13.262C12.1454 13.122 11.856 13.052 11.4454 13.052H10.9274V10.546H11.4314C12.066 10.5833 12.3834 10.3313 12.3834 9.79C12.3834 9.55667 12.332 9.384 12.2294 9.272C12.136 9.16 12.0147 9.104 11.8654 9.104C11.52 9.104 11.3474 9.39333 11.3474 9.972H8.32336Z" fill="#95B2D8"/>
</svg>
